<svg xmlns="http://www.w3.org/2000/svg" viewBox="0 0 10.6 10.6"><defs><style>.a{fill:#396eb5;}.b{fill:#111321;}.c{fill:#fff;}</style></defs><title>Facebook</title><circle class="a" cx="5.3" cy="5.3" r="5.2"/><path class="b" d="M5.3.2A5.1,5.1,0,1,1,.2,5.3,5.1,5.1,0,0,1,5.3.2m0-.2a5.3,5.3,0,1,0,5.3,5.3A5.31,5.31,0,0,0,5.3,0Z"/><path class="c" d="M5.3,10.5a4.43,4.43,0,0,1-.81-.07H4.41V6.88H3.11V5.2h1.3v-1a1.91,1.91,0,0,1,2-2.09,8.58,8.58,0,0,1,1.16.1l.08,0V3.65H6.93a.64.64,0,0,0-.73.7V5.2H7.63L7.37,6.88H6.2v3.54H6.12A4.47,4.47,0,0,1,5.3,10.5Z"/><path class="b" d="M6.43,2.19a7.74,7.74,0,0,1,1.14.1V3.55H6.93a.74.74,0,0,0-.83.8v1H7.51L7.29,6.78H6.1v3.56a5.29,5.29,0,0,1-.8.06,5.16,5.16,0,0,1-.79-.06V6.78H3.21V5.3h1.3V4.18a1.8,1.8,0,0,1,1.92-2m0-.2A2,2,0,0,0,4.31,4.18V5.1H3V7h1.3v3.53l.16,0a5.16,5.16,0,0,0,.83.07,5,5,0,0,0,.83-.07l.17,0V7H7.46l0-.17.22-1.48,0-.23H6.3V4.35c0-.41.21-.6.63-.6h.84V2.12l-.16,0A6.91,6.91,0,0,0,6.43,2Z"/></svg>