<svg xmlns="http://www.w3.org/2000/svg" viewBox="0 0 13.16 8.85"><defs><style>.a{fill:#fff;}.a,.c,.d{fill-rule:evenodd;}.b{fill:#111321;}.c{fill:#26a9e1;}.d{fill:#f1e63d;}</style></defs><title>GGJ</title><path class="a" d="M6.48,8.75a4.33,4.33,0,1,1,4.31-4.29A4.25,4.25,0,0,1,6.48,8.75Z"/><path class="b" d="M6.47.2a4.25,4.25,0,0,1,4.22,4.26A4.17,4.17,0,0,1,6.48,8.65,4.23,4.23,0,1,1,6.47.2m0-.2a4.43,4.43,0,1,0,0,8.85,4.36,4.36,0,0,0,4.41-4.39A4.44,4.44,0,0,0,6.47,0Z"/><path class="c" d="M2.49,5.52a4,4,0,0,1-.15-1.09c0-.13,0-.25,0-.38l.09.18a1,1,0,0,1,.16.41,1.71,1.71,0,0,1-.07.61A2.16,2.16,0,0,0,2.49,5.52Z"/><path class="b" d="M2.44,4.42a1,1,0,0,1,.07.23,1.62,1.62,0,0,1,0,.39,4.18,4.18,0,0,1-.05-.61h0m-.11-.86a4.14,4.14,0,0,0-.09.87,4.29,4.29,0,0,0,.33,1.64c-.07-.64.19-.92.14-1.44s-.34-.54-.38-1.07Z"/><path class="c" d="M3.68,1.38A3.94,3.94,0,0,1,4.13,1h.1a2.37,2.37,0,0,1,.51.09h0l-.16,0A3.57,3.57,0,0,0,3.68,1.38Z"/><path class="b" d="M4.38.75A4.28,4.28,0,0,0,3.1,1.87a4.16,4.16,0,0,1,1.75-.72C5,1,4.24.93,4.24.93A.53.53,0,0,1,4.38.75Z"/><path class="c" d="M6.47,8.55A4.16,4.16,0,0,1,3.59,7.39h.23l.22,0-.16-.15a1.23,1.23,0,0,1-.4-.94,2.85,2.85,0,0,1,1-1.84l.36-.29a2.6,2.6,0,0,0,1.2-1.62.86.86,0,0,0-.16-.71A1.15,1.15,0,0,0,5.1,1.5,1.6,1.6,0,0,1,6,1.2a.47.47,0,0,0,0,.1c-.06.13,0,.18,0,.23a.27.27,0,0,0,.17.09h0C6,1.69,6,1.74,6,1.8v.05l.07,0a.29.29,0,0,0,.16,0,.43.43,0,0,0,.38-.24.22.22,0,0,0,0-.22l0-.05-.11,0a.47.47,0,0,0-.16,0l.08-.13c.08-.12.11-.12.12-.12a.8.8,0,0,0,.23.05.35.35,0,0,0,.28-.15A.16.16,0,0,1,7.2,1l.15,0,.12,0A.36.36,0,0,0,7.85.74a.25.25,0,0,0,0-.21l0,0A4.07,4.07,0,0,1,10.26,2.8c-.07-.08-.11-.08-.14-.08a.51.51,0,0,1-.33-.12.81.81,0,0,0-.46-.27.27.27,0,0,0-.22.11.86.86,0,0,0-.18.68A.41.41,0,0,0,9,3.36a1.1,1.1,0,0,0-.64-.22.79.79,0,0,0-.71.46,1.54,1.54,0,0,0,.36,1.88.61.61,0,0,1,.18.43,1.51,1.51,0,0,1-.55,1c-.14.14-.51.5-.46.89a.82.82,0,0,0,.48.55l.08,0A4.18,4.18,0,0,1,6.47,8.55ZM10,4c-.24,0-.55-.26-.78-.45h0a.4.4,0,0,0,.21.07.28.28,0,0,0,.24-.19h0l0,.13c0,.22.08.41.22.41s.14,0,.19-.25a.62.62,0,0,1,0,.13A.23.23,0,0,1,10,4Z"/><path class="b" d="M8,.68a4,4,0,0,1,2.11,1.94.42.42,0,0,1-.24-.12.84.84,0,0,0-.5-.27.37.37,0,0,0-.3.15,1,1,0,0,0-.21.75A1,1,0,0,0,8.4,3a.89.89,0,0,0-.8.51,1.63,1.63,0,0,0,.38,2,.53.53,0,0,1,.15.36,1.43,1.43,0,0,1-.52.89c-.15.15-.55.54-.48,1a.8.8,0,0,0,.38.54,4,4,0,0,1-1,.13,4.06,4.06,0,0,1-2.63-1l.43,0L4,7.14a1.12,1.12,0,0,1-.37-.87,2.72,2.72,0,0,1,1-1.76l.35-.3A2.67,2.67,0,0,0,6.15,2.54a1.25,1.25,0,0,0,0-.52.27.27,0,0,0,.13,0,.54.54,0,0,0,.47-.29.29.29,0,0,0,0-.32.27.27,0,0,0-.17-.12h0a.43.43,0,0,0,.21.05.56.56,0,0,0,.41-.21l.13,0,.13,0h.06A.45.45,0,0,0,8,.77.28.28,0,0,0,8,.68m-2.17.64a.26.26,0,0,0,.08.28l0,0,0,0s0,0,0,.05a1,1,0,0,0-.53-.27,1.72,1.72,0,0,1,.39-.12M9.61,3.61a.36.36,0,0,0,0,.1l-.09-.06.07,0M6.47.2a4.44,4.44,0,0,0-1,.13l.46,0,.51,0C7.44.25,7.8.56,7.76.72S7.67,1,7.52,1h0c-.1,0-.2,0-.28,0A.25.25,0,0,0,7,1a.23.23,0,0,1-.2.12l-.14,0a.15.15,0,0,0-.09,0,.22.22,0,0,0-.17.11c-.06.09-.18.31-.28.31l-.05,0C6,1.39,6,1.44,6,1.33s.19-.22.12-.23H6.05a1.76,1.76,0,0,0-1.21.5c.54,0,1.22.1,1.11.92S5.16,3.73,4.43,4.35s-1.58,2-.62,2.93H3.68a1.07,1.07,0,0,1-.39-.07A4.23,4.23,0,0,0,6.47,8.65a4.34,4.34,0,0,0,1.65-.33.93.93,0,0,1-.37-.1c-.84-.43-.23-1.05,0-1.28s.92-1,.37-1.53a1.43,1.43,0,0,1-.34-1.76.69.69,0,0,1,.62-.41A1,1,0,0,1,9,3.46c.29.23.69.6.95.6A.17.17,0,0,0,10,4c.38-.23,0-.71,0-.71s0,.49-.12.49-.13-.52-.2-.57h0c-.12,0-.09.24-.25.24a.35.35,0,0,1-.16-.06c-.38-.2-.25-.69-.08-.91a.21.21,0,0,1,.15-.07c.15,0,.33.2.39.25a.64.64,0,0,0,.4.14c.12,0,.38.6.52,1A4.22,4.22,0,0,0,6.47.2ZM6.25,1.84l-.1,0c-.05,0-.08,0,.09-.18a.5.5,0,0,1,.28-.13c.06,0,.08,0,0,.14a.35.35,0,0,1-.3.19Z"/><path class="d" d="M11.08,8c-2.24,0-3.69-1.88-5-3.54C5,3.07,4,1.75,2.7,1.75A1.63,1.63,0,0,0,1,3.14,1.27,1.27,0,0,0,2.2,4.5l.08,0,.06.08a4.18,4.18,0,0,0,.09.71l0,.14-.29,0A2.35,2.35,0,0,1,.1,3.05,2.47,2.47,0,0,1,2.75.9C4.43.9,5.64,2.46,6.82,4S9.27,7.13,11,7.13c.74,0,1.06-.41,1.11-.75a1.06,1.06,0,0,0-.86-1.08,2.44,2.44,0,0,0-.48,0h-.3l0-.13a3.82,3.82,0,0,0,.06-.68v-.1h.22a3.46,3.46,0,0,1,.52,0,2,2,0,0,1,1.73,1.93A1.82,1.82,0,0,1,11.08,8Z"/><path class="b" d="M2.75,1C6.07,1,7.47,7.23,11,7.23c1.52,0,1.62-1.64.27-2a1.93,1.93,0,0,0-.5-.06h-.18a4,4,0,0,0,.06-.7h.13a3.31,3.31,0,0,1,.5,0A1.88,1.88,0,0,1,13,6.31a1.72,1.72,0,0,1-1.88,1.58c-4,0-5.45-6.24-8.38-6.24C.76,1.65.1,4.19,2.18,4.6h.06a4.43,4.43,0,0,0,.09.72l-.15,0a2.25,2.25,0,0,1-2-2.25A2.38,2.38,0,0,1,2.75,1m0-.2A2.57,2.57,0,0,0,0,3.05,2.45,2.45,0,0,0,2.15,5.5l.15,0,.29,0-.06-.29a3.84,3.84,0,0,1-.09-.68V4.43l-.16,0H2.21c-.88-.18-1.15-.76-1.1-1.25A1.52,1.52,0,0,1,2.7,1.85C4,1.85,5,3.15,6,4.52c1.3,1.67,2.78,3.57,5.06,3.57a1.92,1.92,0,0,0,2.08-1.78,2.08,2.08,0,0,0-1.81-2,3.89,3.89,0,0,0-.53,0h-.33v.2a4.91,4.91,0,0,1-.05.67l0,.26.26,0h.16a2.31,2.31,0,0,1,.46.05.94.94,0,0,1,.78,1C12,6.69,11.71,7,11,7,9.32,7,8.09,5.44,6.89,3.91S4.48.8,2.75.8Z"/></svg>