<svg xmlns="http://www.w3.org/2000/svg" viewBox="0 0 10.6 10.6"><defs><style>.a{fill:#24292f;}.b{fill:#111321;}.c{fill:#fff;}</style></defs><title>Github</title><circle class="a" cx="5.3" cy="5.3" r="5.2"/><path class="b" d="M5.3.2A5.1,5.1,0,1,1,.2,5.3,5.1,5.1,0,0,1,5.3.2m0-.2a5.3,5.3,0,1,0,5.3,5.3A5.31,5.31,0,0,0,5.3,0Z"/><path class="c" d="M5.3,10.5a5,5,0,0,1-1.43-.2l-.26-.07.24-.12A.13.13,0,0,0,3.94,10s0-.6,0-.83a3.59,3.59,0,0,1-.44,0,1.23,1.23,0,0,1-1.27-.75,1.27,1.27,0,0,0-.51-.69c-.15-.1-.3-.21-.25-.35s.24-.15.32-.15a1.16,1.16,0,0,1,.88.58.92.92,0,0,0,.81.51A1.29,1.29,0,0,0,4,8.21a.85.85,0,0,1,.17-.52A2.33,2.33,0,0,1,2,5.07a2.1,2.1,0,0,1,.51-1.4,2,2,0,0,1,.07-1.38.27.27,0,0,1,.21-.07,2.51,2.51,0,0,1,1.35.56,3.55,3.55,0,0,1,1.22-.19,5.21,5.21,0,0,1,1.3.17,2.23,2.23,0,0,1,1.26-.54H8a2,2,0,0,1,.13,1.44,2.06,2.06,0,0,1,.51,1.4A2.32,2.32,0,0,1,6.43,7.68a1.49,1.49,0,0,1,.24.88V10a.14.14,0,0,0,.08.13l.24.12-.26.07A5,5,0,0,1,5.3,10.5Z"/><path class="b" d="M7.87,2.32H8A1.86,1.86,0,0,1,8,3.69a2,2,0,0,1,.52,1.38A2.27,2.27,0,0,1,6.23,7.61a1.24,1.24,0,0,1,.34,1V10a.22.22,0,0,0,.14.22,5.06,5.06,0,0,1-1.41.2,4.93,4.93,0,0,1-1.4-.2A.24.24,0,0,0,4,10c0-.12,0-.53,0-1a2.22,2.22,0,0,1-.54.07,1.15,1.15,0,0,1-1.18-.68,1.27,1.27,0,0,0-.56-.75c-.47-.31,0-.31,0-.31a1.06,1.06,0,0,1,.79.52,1,1,0,0,0,.9.57,1.46,1.46,0,0,0,.59-.14,1.07,1.07,0,0,1,.32-.69A2.26,2.26,0,0,1,2.05,5.07a2,2,0,0,1,.53-1.38,1.86,1.86,0,0,1,0-1.36h.11A2.47,2.47,0,0,1,4,2.86a4.64,4.64,0,0,1,1.28-.17,4.86,4.86,0,0,1,1.27.17,2.47,2.47,0,0,1,1.29-.54m0-.2a2.52,2.52,0,0,0-1.32.52,5.19,5.19,0,0,0-1.24-.15,5.13,5.13,0,0,0-1.24.15,2.54,2.54,0,0,0-1.33-.52.45.45,0,0,0-.17,0l-.09,0,0,.09a2.15,2.15,0,0,0-.09,1.39,2.2,2.2,0,0,0-.5,1.42A2.38,2.38,0,0,0,4,7.76a1.71,1.71,0,0,0-.13.4,1.19,1.19,0,0,1-.41.08.8.8,0,0,1-.73-.47,1.27,1.27,0,0,0-1-.62h0c-.12,0-.37,0-.43.22s.18.39.28.46a1.15,1.15,0,0,1,.49.65,1.31,1.31,0,0,0,1.36.81l.34,0c0,.19,0,.37,0,.5V10a0,0,0,0,1,0,0l-.48.23.51.15a5.7,5.7,0,0,0,1.46.2,5.59,5.59,0,0,0,1.46-.2l.52-.15L6.79,10a0,0,0,0,1,0,0V8.56a1.76,1.76,0,0,0-.17-.8A2.4,2.4,0,0,0,8.76,5.07a2.16,2.16,0,0,0-.5-1.42,2.09,2.09,0,0,0-.09-1.39l0-.09-.09,0a.53.53,0,0,0-.18,0Z"/></svg>