<svg xmlns="http://www.w3.org/2000/svg" viewBox="0 0 10.6 9.58"><defs><style>.a{fill:#eb5c5f;}.b{fill:#111321;}.c{fill:#fff;}</style></defs><title>Itchio</title><path class="a" d="M5.3,9.48a19.22,19.22,0,0,1-3.91-.29C.85,8.67.87,7,.87,5.83v-1A12.69,12.69,0,0,1,1,3.57V3.45l.12,0h.07a1.07,1.07,0,0,0,.77-.29A1.37,1.37,0,0,0,2.11,3l.09-.16L2.28,3a1,1,0,0,0,.18.23,1.09,1.09,0,0,0,.75.3A1.07,1.07,0,0,0,4,3.19.68.68,0,0,0,4.15,3l.09-.15L4.33,3a1.08,1.08,0,0,0,.18.24,1.1,1.1,0,0,0,.76.3,1.19,1.19,0,0,0,.83-.3A1.08,1.08,0,0,0,6.28,3l.08-.15L6.45,3a.84.84,0,0,0,.18.23,1.07,1.07,0,0,0,.76.31,1.12,1.12,0,0,0,.76-.3A1.37,1.37,0,0,0,8.32,3l.09-.16L8.49,3l.19.23a1.14,1.14,0,0,0,.76.3l.12,0,.1.11c0,.48.06.93.07,1.26v1c0,1.13,0,2.83-.47,3.33a18.34,18.34,0,0,1-4,.31ZM9.41,3.37a1.16,1.16,0,0,1-1-.66,1.11,1.11,0,0,1-2,0,1.17,1.17,0,0,1-1,.66,1.19,1.19,0,0,1-1.06-.66,1.1,1.1,0,0,1-1,.66,1.13,1.13,0,0,1-1-.66,1.16,1.16,0,0,1-1,.66A1.19,1.19,0,0,1,.1,2.23V1.79A4.07,4.07,0,0,1,1.48.17C1.91.12,3.82.1,5.3.1h.11c1.37,0,2.32,0,3.67.06A4,4,0,0,1,10.5,1.79v.44A1.19,1.19,0,0,1,9.41,3.37Z"/><path class="b" d="M5.35.2c1.4,0,2.36,0,3.72.06A4.05,4.05,0,0,1,10.4,1.79v.44a1.08,1.08,0,0,1-1,1,1,1,0,0,1-1-1,1,1,0,0,1-1,1,1,1,0,0,1-1-1,1.06,1.06,0,0,1-1.05,1h0a1.05,1.05,0,0,1-1-1,1,1,0,0,1-1,1,1,1,0,0,1-1-1,1,1,0,0,1-1,1,1.09,1.09,0,0,1-1-1V1.79A4.24,4.24,0,0,1,1.53.26h0C1.92.22,3.87.2,5.3.2h0M6.36,3a1.64,1.64,0,0,0,.2.26,1.22,1.22,0,0,0,.83.33h0a1.21,1.21,0,0,0,.83-.33A1.5,1.5,0,0,0,8.41,3h0a1.57,1.57,0,0,0,.2.25,1.23,1.23,0,0,0,.83.33h0l.12,0c0,.48.06.93.07,1.26h0v.5c0,1,.1,3.21-.44,3.76a20.83,20.83,0,0,1-3.89.28h0A20.83,20.83,0,0,1,1.41,9.1C.88,8.55,1,6.33,1,5.34c0-.2,0-.33,0-.5H1c0-.33,0-.78.07-1.26l.11,0h0A1.21,1.21,0,0,0,2,3.27,1.64,1.64,0,0,0,2.2,3h0a1.1,1.1,0,0,0,.19.25,1.18,1.18,0,0,0,.82.33h0A1.15,1.15,0,0,0,4,3.27,1.21,1.21,0,0,0,4.24,3h0a1.16,1.16,0,0,0,1,.59h.07a1.23,1.23,0,0,0,.83-.33A1.57,1.57,0,0,0,6.36,3m-1-3h0C4,0,1.94,0,1.51.06h0l0,0C1,.35,0,1.4,0,1.79v.44A1.3,1.3,0,0,0,.89,3.42l0,.14c0,.51-.07,1-.07,1.27v.5c0,.15,0,.32,0,.51,0,1.51,0,2.91.5,3.4l0,0h.06a20.22,20.22,0,0,0,3.93.29,20.34,20.34,0,0,0,3.94-.29h0l.05,0c.47-.49.5-1.89.49-3.41v-1c0-.31,0-.77-.07-1.28l0-.14a1.32,1.32,0,0,0,.86-1.19V1.79c0-.39-1-1.44-1.42-1.71l0,0H9.08C7.71,0,6.75,0,5.35,0Z"/><path class="c" d="M8.23,8.48A1.4,1.4,0,0,1,6.8,7.21a11.43,11.43,0,0,1-1.5.1,11.55,11.55,0,0,1-1.5-.1A1.4,1.4,0,0,1,2.37,8.48a.94.94,0,0,1-.8-.24c-.16-.21-.16-.59,0-1.19l.48-1.72C2.27,4.73,2.67,4,3.39,4a1.22,1.22,0,0,1,1.08.44,3.25,3.25,0,0,1,.82-.08,9.16,9.16,0,0,1,.93,0,1,1,0,0,1,1-.41h0c.72,0,1.13.72,1.34,1.32L9,7.05c.17.59.17,1,0,1.19a.92.92,0,0,1-.79.24Z"/><path class="b" d="M7.21,4.11c.16,0,.8,0,1.25,1.25l.47,1.71c.36,1.28-.11,1.31-.69,1.31A1.3,1.3,0,0,1,6.9,7.09a10,10,0,0,1-1.6.12h0a9.88,9.88,0,0,1-1.59-.12A1.31,1.31,0,0,1,2.37,8.38c-.59,0-1,0-.7-1.31l.48-1.71c.44-1.25,1.08-1.25,1.24-1.25h0a1.13,1.13,0,0,1,1,.41,8.69,8.69,0,0,1,.89,0h0a8.72,8.72,0,0,1,.9,0,1.12,1.12,0,0,1,1-.41h0m-3.82,0h0m3.82-.2h0v0a1.3,1.3,0,0,0-1.08.4c-.27,0-.54,0-.82,0s-.57,0-.83,0a1.32,1.32,0,0,0-1.09-.4h0c-.61,0-1.11.48-1.43,1.38L1.48,7c-.18.64-.18,1,0,1.28a1,1,0,0,0,.88.28A1.52,1.52,0,0,0,3.89,7.32a10.34,10.34,0,0,0,1.41.09,10.34,10.34,0,0,0,1.41-.09A1.52,1.52,0,0,0,8.23,8.58a1,1,0,0,0,.88-.28c.19-.24.19-.64,0-1.28L8.65,5.31c-.33-.92-.82-1.4-1.44-1.4Z"/><path class="a" d="M5.3,6.82,5,6.84c-.1,0-.23,0-.23-.12V6.31l-.66,0,.08-.15A8.84,8.84,0,0,1,5.23,5L5.3,5,5.37,5A8.56,8.56,0,0,1,6.46,6.18l.09.15-.67,0v.41c0,.12-.13.12-.23.12Z"/><path class="b" d="M5.3,5.09h0A9,9,0,0,1,6.37,6.23l-.59,0v.52s0,0-.13,0l-.35,0h0L5,6.74c-.08,0-.13,0-.13,0V6.2l-.59,0A9,9,0,0,1,5.3,5.09h0m0-.27L5.17,5l.13.14L5.16,5A8.35,8.35,0,0,0,4.05,6.13l-.17.31h.36l.38,0v.31c0,.22.24.22.33.22l.36,0,.34,0c.09,0,.33,0,.33-.22V6.41l.39,0h.35l-.17-.31A8.17,8.17,0,0,0,5.44,5L5.3,4.82Z"/></svg>