<svg xmlns="http://www.w3.org/2000/svg" viewBox="0 0 10.4 10.38"><defs><style>.a{fill:#2267b0;}.a,.b{stroke:#111321;stroke-miterlimit:10;stroke-width:0.2px;}.b{fill:#fff;}</style></defs><title>linkedin</title><path class="a" d="M5.2.1H9.51a.75.75,0,0,1,.79.79v8.6a.76.76,0,0,1-.8.79H.93A.77.77,0,0,1,.1,9.49V1A.85.85,0,0,1,.25.42.73.73,0,0,1,.87.1Z"/><path class="b" d="M4.09,6.34V8.63c0,.09,0,.13.12.13H5.45c.12,0,.12,0,.12-.13V6.44a3.08,3.08,0,0,1,0-.53.93.93,0,0,1,.22-.53.88.88,0,0,1,.81-.26.64.64,0,0,1,.56.48,1.79,1.79,0,0,1,.08.57c0,.82,0,1.65,0,2.47,0,.09,0,.12.12.12H8.64c.14,0,.14,0,.14-.14,0-.87,0-1.74,0-2.61a3.76,3.76,0,0,0-.1-.94A1.41,1.41,0,0,0,7.85,4a2.19,2.19,0,0,0-1.13-.14,1.52,1.52,0,0,0-1.12.69s0,.06-.06.06,0-.06,0-.09a3.23,3.23,0,0,1,0-.44c0-.09,0-.12-.12-.12H4.22c-.13,0-.13,0-.13.13Zm-2.45,0V8.63c0,.1,0,.13.12.13H3c.08,0,.11,0,.11-.12V4c0-.08,0-.11-.11-.11H1.77c-.13,0-.13,0-.13.13Zm-.12-4a.86.86,0,0,0,.86.86.87.87,0,0,0,.87-.86.87.87,0,1,0-1.73,0Z"/></svg>