<svg xmlns="http://www.w3.org/2000/svg" viewBox="0 0 11.6 8.78"><defs><style>.a{fill:#3f95d1;}.b{fill:#111321;}</style></defs><title>Twitter</title><path class="a" d="M4,8.68A6,6,0,0,1,.79,7.73L.42,7.49l.43,0,.49,0a4.13,4.13,0,0,0,2.33-.72,2.19,2.19,0,0,1-1.78-1.5l0-.16.16,0a1.64,1.64,0,0,0,.38,0H2.5a2.21,2.21,0,0,1-1.35-2V3.06l.15.06a2,2,0,0,0,.56.21A2.21,2.21,0,0,1,1.47.62L1.54.5l.09.11A5.84,5.84,0,0,0,5.74,2.75,2.2,2.2,0,0,1,9.51.88a6.71,6.71,0,0,0,1.2-.52l.23-.14-.08.25a2.19,2.19,0,0,1-.62,1A4.32,4.32,0,0,0,11,1.18L11.32,1l-.19.29a4.51,4.51,0,0,1-1.07,1.11s0,.09,0,.19A6,6,0,0,1,4.05,8.68Z"/><path class="b" d="M7.91.29A2.06,2.06,0,0,1,9.43,1,4,4,0,0,0,10.76.44,2,2,0,0,1,9.84,1.6a4.26,4.26,0,0,0,1.21-.33A4.15,4.15,0,0,1,10,2.35a2.53,2.53,0,0,1,0,.28,5.92,5.92,0,0,1-6,6H4a6,6,0,0,1-3.2-.94,4.19,4.19,0,0,0,.5,0h0a4.15,4.15,0,0,0,2.6-.9A2.09,2.09,0,0,1,2,5.32a1.87,1.87,0,0,0,.4,0,2,2,0,0,0,.55-.08A2.08,2.08,0,0,1,1.25,3.23v0a2.11,2.11,0,0,0,1,.26A2.11,2.11,0,0,1,1.55.67,5.94,5.94,0,0,0,5.87,2.86a2.09,2.09,0,0,1,2-2.57M11.12,0l-.46.27A4,4,0,0,1,9.5.73,2.31,2.31,0,0,0,7.91.09,2.27,2.27,0,0,0,6.34.71a2.31,2.31,0,0,0-.71,1.93A5.75,5.75,0,0,1,1.71.55L1.53.32,1.38.57a2.3,2.3,0,0,0,.17,2.56,1.24,1.24,0,0,1-.2-.1l-.3-.16v.34a2.34,2.34,0,0,0,1,1.92H2l-.33-.06.1.32A2.3,2.3,0,0,0,3.4,6.9a4,4,0,0,1-2.06.57,3.59,3.59,0,0,1-.47,0L0,7.34l.73.47a6.19,6.19,0,0,0,3.12,1h.2a6.1,6.1,0,0,0,6.16-6.15V2.45a4.42,4.42,0,0,0,1-1.07L11.6.81,11,1.09l-.42.15A2.13,2.13,0,0,0,11,.5l.17-.5Z"/></svg>