<svg xmlns="http://www.w3.org/2000/svg" xmlns:xlink="http://www.w3.org/1999/xlink" viewBox="0 0 70.45 90.71"><defs><style>.a{fill-rule:evenodd;fill:url(#a);}</style><linearGradient id="a" x1="18.46" y1="12.62" x2="60.42" y2="85.29" gradientUnits="userSpaceOnUse"><stop offset="0" stop-color="#dce4f5"/><stop offset="1" stop-color="#bbc4e4" stop-opacity="0.75"/></linearGradient></defs><title>favicon</title><path class="a" d="M64.13,82.84a40,40,0,0,1-23.81,7.87h-.07a40.33,40.33,0,1,1,10-79.37A10.14,10.14,0,0,0,47.83,3.4,10.22,10.22,0,0,0,40.32,0,30.22,30.22,0,0,1,68.81,20.34c.28.78.5,1.56.71,2.34a30.75,30.75,0,0,1-4.25,24.59,25.15,25.15,0,0,0-24.95-22,11.71,11.71,0,0,0-1.56.07A25.18,25.18,0,0,0,15.17,50.39,35.28,35.28,0,0,0,50.39,85.68h.07A35.39,35.39,0,0,0,64.13,82.84ZM59.81,17.08A10.07,10.07,0,0,1,63.5,30.83,10.08,10.08,0,0,1,59.81,17.08Z"/></svg>